<?xml version="1.0" encoding="UTF-8"?>
<svg xmlns="http://www.w3.org/2000/svg" xmlns:xlink="http://www.w3.org/1999/xlink" width="px" height="22px" viewBox="0 0 22 22" version="1.1">
<g id="surface1">
<path style=" stroke:none;fill-rule:nonzero;fill:rgb(0.784314%,46.666667%,74.117647%);fill-opacity:1;" d="M 18.792969 2.292969 L 3.207031 2.292969 L 4.582031 17.875 L 11 19.707031 L 17.417969 17.875 Z M 18.792969 2.292969 "/>
<path style=" stroke:none;fill-rule:nonzero;fill:rgb(1.176471%,60.784314%,89.803922%);fill-opacity:1;" d="M 11 3.667969 L 11 18.289062 L 16.132812 16.820312 L 17.277344 3.667969 Z M 11 3.667969 "/>
<path style=" stroke:none;fill-rule:nonzero;fill:rgb(100%,100%,100%);fill-opacity:1;" d="M 15.171875 5.957031 L 11 5.957031 L 11 7.792969 L 13.246094 7.792969 L 13.109375 9.625 L 11 9.625 L 11 11.457031 L 13.015625 11.457031 L 12.878906 13.519531 L 11 14.164062 L 11 16.085938 L 14.621094 14.894531 L 14.941406 9.625 Z M 15.171875 5.957031 "/>
<path style=" stroke:none;fill-rule:nonzero;fill:rgb(93.333333%,93.333333%,93.333333%);fill-opacity:1;" d="M 11 5.957031 L 11 7.792969 L 6.921875 7.792969 L 6.785156 5.957031 Z M 8.890625 9.625 L 8.984375 11.457031 L 11 11.457031 L 11 9.625 Z M 9.074219 12.375 L 7.242188 12.375 L 7.378906 14.894531 L 11 16.085938 L 11 14.164062 L 9.121094 13.519531 Z M 9.074219 12.375 "/>
</g>
</svg>
